# xmcd
#
# Track frame offsets: 
#        150
#        21121
#        30190
#        54208
#        88262
#        109998
#        143621
#        171348
#        204316
#        219630
#        239642
#        268385
#        286548
#        309784
#
# Disc length: 4574 seconds
#
# Revision: 2
# Processed by: cddbd v1.5.2PL0 Copyright (c) Steve Scherf et al.
# Submitted via: ExactAudioCopy v1.1
#
DISCID=bf11dc0e
DTITLE=Blank and Jones - Chilltronica No 5
DYEAR=2015
DGENRE=Electronic
TTITLE0=Interstellar [Marc-George infinite reprise] - Blank and Jones
TTITLE1=Azur - Troels Hammer
TTITLE2=World Of Life - Marc-George
TTITLE3=White Light - Blank and Jones
TTITLE4=Armor - I will, I swear and Illuminine
TTITLE5=Trans/For/Mation - Troels Hammer
TTITLE6=Above Earth - Blank and Jones
TTITLE7=Interstellar [Marc-George space remix] - Blank and Jones
TTITLE8=Long Days - I will, I swear
TTITLE9=Elegy (IV) - Antonymes
TTITLE10=WYB (Chilltronica) - Blank and Jones
TTITLE11=Skyfall - Blank and Jones
TTITLE12=Lady [Drumless] - Chromatics
TTITLE13=Fade To Grey [cinematic mix] - Visage
EXTD=
EXTT0=
EXTT1=
EXTT2=
EXTT3=
EXTT4=
EXTT5=
EXTT6=
EXTT7=
EXTT8=
EXTT9=
EXTT10=
EXTT11=
EXTT12=
EXTT13=
PLAYORDER=
